<?xml version="1.0" encoding="utf-8"?>
<!-- Generator: Adobe Illustrator 19.0.0, SVG Export Plug-In . SVG Version: 6.00 Build 0)  -->
<svg version="1.1" id="Layer_1" xmlns="http://www.w3.org/2000/svg" xmlns:xlink="http://www.w3.org/1999/xlink" x="0px" y="0px"
	 viewBox="0 0 566.9 566.9" style="enable-background:new 0 0 566.9 566.9;" xml:space="preserve">
<style type="text/css">
	.st0{fill:url(#XMLID_18_);}
	.st1{fill:#115B39;}
	.st2{fill:#28DD93;}
	.st3{fill:url(#XMLID_47_);}
	.st4{opacity:0.22;fill:#115B39;}
	.st5{opacity:0.24;fill:#115B39;}
</style>
<g id="XMLID_81_">
	<g id="XMLID_2_">
		<linearGradient id="XMLID_18_" gradientUnits="userSpaceOnUse" x1="64.4039" y1="231.7798" x2="502.5274" y2="231.7798">
			<stop  offset="0" style="stop-color:#1B8957"/>
			<stop  offset="1" style="stop-color:#267250"/>
		</linearGradient>
		<path id="XMLID_13_" class="st0" d="M95.8,15c-9.5-0.6-21.7-1-31.4-1h0v435.4h438.1v0c0-10.9-0.4-21.7-1.2-32.5H95.8V15z"/>
		<path id="XMLID_14_" class="st1" d="M505.2,452.2H61.7V11.4h2.7c10.1,0,22.5,0.4,31.5,1l2.5,0.2v401.8h405.3l0.2,2.5
			c0.8,11.4,1.2,22.1,1.2,32.7V452.2z M67.1,446.8h432.7c-0.1-8.8-0.4-17.7-1-27.1H93.1V17.6c-7.8-0.4-17.5-0.7-26-0.8V446.8z"/>
		<g id="XMLID_6_">
			<path id="XMLID_8_" class="st2" d="M310.7,90.4v138h55.2l-96.7,122.2l-94.5-122.2h55.2V46.6c-32.2-13.2-66.3-22.7-101.7-27.9
				l-1.5,372.1l371.5-3.1C480.5,264.6,408.8,157.8,310.7,90.4z"/>
			<path id="XMLID_9_" class="st1" d="M123.9,393.5l1.5-378l3.1,0.5c35.1,5.2,69.6,14.6,102.4,28.1l1.7,0.7v186.3h-52.4l89.1,115.1
				l91.1-115.1H308V85.3l4.2,2.9C415,158.8,483.7,267.9,500.8,387.4l0.4,3L123.9,393.5z M130.7,21.8l-1.4,366.3l365.7-3
				c-17.3-115.2-83.3-220.3-181.6-289.5v130.1h58L269.1,354.9l-100-129.2h58V48.4C196.2,35.9,163.8,26.9,130.7,21.8z"/>
		</g>
		<linearGradient id="XMLID_47_" gradientUnits="userSpaceOnUse" x1="95.7766" y1="216.0342" x2="501.2871" y2="216.0342">
			<stop  offset="0" style="stop-color:#20B776"/>
			<stop  offset="1" style="stop-color:#0D9959"/>
		</linearGradient>
		<path id="XMLID_3_" class="st3" d="M131.7,387.7l-1-368.6c-11.5-1.7-23.2-3.3-35-4.1v402h405.5c-0.7-9.9-1.8-19.6-3.2-29.3H131.7z
			"/>
		<path id="XMLID_4_" class="st1" d="M504.2,419.7H93.1V12.2l2.9,0.2c12,0.8,24,2.5,35.2,4.1l2.3,0.3l1,368.3h366l0.3,2.3
			c1.4,9.8,2.5,19.7,3.2,29.5L504.2,419.7z M98.5,414.4h399.9c-0.6-8-1.5-16-2.6-23.9H129.1l-1-369c-9.5-1.4-19.6-2.7-29.6-3.5
			V414.4z"/>
		<path id="XMLID_21_" class="st4" d="M474.1,387.4l25.5,0.4c0,0-16.4-181.2-187.4-297.3v35.9C312.2,126.3,436.2,197.6,474.1,387.4"
			/>
		<polygon id="XMLID_10_" class="st5" points="344.1,228.1 258.6,337 269.1,350.5 365.9,228.4 		"/>
		<path id="XMLID_17_" class="st4" d="M229.8,74.4c0,0-55.7-25.1-99-29.3l-2.7-26.3c0,0,99.8,18.2,102.1,33.2L229.8,74.4z"/>
	</g>
	<g id="XMLID_20_">
		<path id="XMLID_22_" class="st1" d="M61.7,554.6v-74.6h14.7v60h17v14.6H61.7z"/>
		<path id="XMLID_24_" class="st1" d="M99.9,554.6v-74.6H115v74.6H99.9z"/>
		<path id="XMLID_26_" class="st1" d="M127.5,554.6v-74.6H142c9.7,0,16.6,1.5,20.7,4.6c4,3,6.1,8.1,6.1,15.3c0,4.1-0.8,7.4-2.3,10
			c-1.5,2.6-3.9,4.7-7.2,6.3c3.6,1.3,6.3,3.3,8,6.1c1.7,2.8,2.6,6.4,2.6,11c0,3.4-0.6,6.4-1.7,9.2c-1.1,2.7-2.8,5.1-4.9,7
			c-2.1,1.9-4.7,3.2-7.7,4c-3,0.8-7.8,1.2-14.2,1.2H127.5z M141.9,511h1.6c3.8,0,6.6-0.7,8.4-2.2c1.8-1.5,2.7-3.8,2.7-6.9
			c0-3.3-0.9-5.7-2.7-7.3c-1.8-1.6-4.6-2.3-8.5-2.3h-1.5V511z M141.9,541.4c0.2,0,0.6,0,1,0.1c0.5,0,0.8,0,1,0
			c3.8,0,6.6-0.8,8.3-2.3c1.7-1.5,2.6-4,2.6-7.3c0-3.6-0.9-6.1-2.6-7.7c-1.7-1.5-4.6-2.3-8.6-2.3h-1.8V541.4z"/>
		<path id="XMLID_30_" class="st1" d="M185.5,554.6v-60.8h-11.4v-13.8h37.7v13.8h-11.4v60.8H185.5z"/>
		<path id="XMLID_32_" class="st1" d="M267.3,518.4c0,11.4-2.4,20.4-7.1,27.1c-4.8,6.7-11.1,10-19.1,10c-8.2,0-14.7-3.4-19.3-10.1
			c-4.6-6.7-6.9-16.1-6.9-28.1c0-11.9,2.3-21.3,7-28.1c4.6-6.8,11-10.2,19.2-10.2c8.2,0,14.6,3.5,19.3,10.4
			C264.9,496.5,267.3,506.1,267.3,518.4z M241,541.4c3.8,0,6.7-2,8.6-6c1.9-4,2.8-10,2.8-18c0-8.1-0.9-14.1-2.8-18.1
			c-1.9-4-4.7-6-8.6-6c-3.8,0-6.7,2-8.5,6c-1.9,4-2.8,10-2.8,18.1c0,8.1,0.9,14.1,2.8,18C234.4,539.4,237.2,541.4,241,541.4z"/>
		<path id="XMLID_35_" class="st1" d="M276.5,554.6v-74.6h15.5c8.5,0,14.7,1.7,18.5,5c3.8,3.3,5.7,8.7,5.7,16c0,5.3-1,9.6-2.9,12.8
			c-2,3.2-4.9,5.5-8.9,6.8l14.3,34H303l-12.2-30.8v30.8H276.5z M290.9,512.4c0.2,0,0.5,0,0.8,0c0.4,0,0.7,0,0.8,0
			c3.2,0,5.7-0.9,7.3-2.7c1.6-1.8,2.5-4.5,2.5-8c0-3.6-0.8-6.2-2.2-7.8c-1.5-1.6-3.9-2.5-7.2-2.5c-0.5,0-0.9,0-1.2,0
			c-0.3,0-0.5,0-0.8,0.1L290.9,512.4z"/>
		<path id="XMLID_38_" class="st1" d="M324.5,554.6v-74.6H340c8.5,0,14.7,1.7,18.5,5c3.8,3.3,5.7,8.7,5.7,16c0,5.3-1,9.6-2.9,12.8
			c-2,3.2-4.9,5.5-8.9,6.8l14.3,34H351l-12.2-30.8v30.8H324.5z M338.9,512.4c0.2,0,0.5,0,0.8,0c0.4,0,0.7,0,0.8,0
			c3.2,0,5.7-0.9,7.3-2.7c1.6-1.8,2.5-4.5,2.5-8c0-3.6-0.8-6.2-2.2-7.8c-1.5-1.6-3.9-2.5-7.2-2.5c-0.5,0-0.9,0-1.2,0
			c-0.3,0-0.5,0-0.8,0.1L338.9,512.4z"/>
		<path id="XMLID_41_" class="st1" d="M372.5,554.6v-74.6h31.4v13.8h-17v15.1h15.4v13.7h-15.4v17.5h17v14.6H372.5z"/>
		<path id="XMLID_43_" class="st1" d="M413.9,554.6v-74.6H429l15.1,40.1c0.4,1.3,1.1,3.3,1.9,6c0.8,2.7,1.7,5.8,2.7,9.4
			c-0.8-5.3-1.4-10.1-1.7-14.5c-0.4-4.4-0.6-8.5-0.6-12.3v-28.7h13.8v74.6h-13.8L430,512.9c-0.3-0.6-1-3.1-2.1-7.6
			c-0.5-2-1-3.6-1.3-4.8c0.3,2.9,0.6,6.2,0.8,9.8c0.2,3.6,0.3,8,0.3,13v31.4H413.9z"/>
		<path id="XMLID_45_" class="st1" d="M478.9,554.6v-60.8h-11.4v-13.8h37.7v13.8h-11.4v60.8H478.9z"/>
	</g>
</g>
</svg>
