<?xml version="1.0" encoding="utf-8"?>
<!-- Generator: Adobe Illustrator 19.0.0, SVG Export Plug-In . SVG Version: 6.00 Build 0)  -->
<svg version="1.1" id="Layer_1" xmlns="http://www.w3.org/2000/svg" xmlns:xlink="http://www.w3.org/1999/xlink" x="0px" y="0px"
	 viewBox="280.9 61.3 1244.9 701.9" enable-background="new 280.9 61.3 1244.9 701.9" xml:space="preserve">
<g>
	<g id="XMLID_15_">
		<path id="XMLID_48_" d="M1026.6,659.9v-64.7h12.8v52h14.7v12.7H1026.6z"/>
		<path id="XMLID_47_" d="M1059.7,659.9v-64.7h13.1v64.7H1059.7z"/>
		<path id="XMLID_46_" d="M1083.7,659.9v-64.7h12.6c8.4,0,14.4,1.3,18,4c3.5,2.6,5.3,7,5.3,13.3c0,3.6-0.7,6.4-2,8.7
			c-1.3,2.3-3.4,4.1-6.2,5.5c3.1,1.1,5.5,2.9,6.9,5.3c1.5,2.4,2.3,5.6,2.3,9.5c0,2.9-0.5,5.6-1.5,8c-1,2.3-2.4,4.4-4.3,6.1
			c-1.8,1.6-4.1,2.8-6.7,3.5s-6.8,1-12.3,1L1083.7,659.9L1083.7,659.9z M1096.2,622.1h1.4c3.3,0,5.7-0.6,7.3-1.9
			c1.6-1.3,2.3-3.3,2.3-6c0-2.9-0.8-4.9-2.3-6.3s-4-2-7.4-2h-1.3V622.1z M1096.2,648.5c0.2,0,0.5,0,0.9,0.1c0.4,0,0.7,0,0.9,0
			c3.3,0,5.7-0.7,7.2-2c1.5-1.3,2.3-3.5,2.3-6.3c0-3.1-0.8-5.3-2.3-6.7c-1.5-1.3-4-2-7.5-2h-1.6L1096.2,648.5L1096.2,648.5z"/>
		<path id="XMLID_44_" d="M1134,659.9v-52.7h-9.9v-12h32.7v12h-9.9v52.7H1134z"/>
		<path id="XMLID_42_" d="M1204.9,628.5c0,9.9-2.1,17.7-6.2,23.5c-4.2,5.8-9.6,8.7-16.6,8.7c-7.1,0-12.8-2.9-16.7-8.8
			c-4-5.8-6-14-6-24.4c0-10.3,2-18.5,6.1-24.4c4-5.9,9.5-8.8,16.7-8.8s12.7,3,16.7,9C1202.9,609.5,1204.9,617.9,1204.9,628.5z
			 M1182.1,648.5c3.3,0,5.8-1.7,7.5-5.2c1.6-3.5,2.4-8.7,2.4-15.6c0-7-0.8-12.2-2.4-15.7c-1.6-3.5-4.1-5.2-7.5-5.2
			c-3.3,0-5.8,1.7-7.4,5.2c-1.6,3.5-2.4,8.7-2.4,15.7s0.8,12.2,2.4,15.6C1176.4,646.7,1178.8,648.5,1182.1,648.5z"/>
		<path id="XMLID_40_" d="M1212.9,659.9v-64.7h13.4c7.4,0,12.8,1.5,16,4.3c3.3,2.9,4.9,7.5,4.9,13.9c0,4.6-0.9,8.3-2.5,11.1
			c-1.7,2.8-4.3,4.8-7.7,5.9l12.4,29.5h-13.6l-10.6-26.7v26.7H1212.9z M1225.4,623.3c0.2,0,0.4,0,0.7,0c0.3,0,0.6,0,0.7,0
			c2.8,0,4.9-0.8,6.3-2.3c1.4-1.6,2.2-3.9,2.2-6.9c0-3.1-0.7-5.4-1.9-6.8c-1.3-1.4-3.4-2.2-6.2-2.2c-0.4,0-0.8,0-1,0
			c-0.3,0-0.4,0-0.7,0.1V623.3z"/>
		<path id="XMLID_39_" d="M1254.6,659.9v-64.7h13.4c7.4,0,12.8,1.5,16,4.3c3.3,2.9,4.9,7.5,4.9,13.9c0,4.6-0.9,8.3-2.5,11.1
			c-1.7,2.8-4.3,4.8-7.7,5.9l12.4,29.5h-13.6l-10.6-26.7v26.7H1254.6z M1267.1,623.3c0.2,0,0.4,0,0.7,0c0.3,0,0.6,0,0.7,0
			c2.8,0,4.9-0.8,6.3-2.3c1.4-1.6,2.2-3.9,2.2-6.9c0-3.1-0.7-5.4-1.9-6.8c-1.3-1.4-3.4-2.2-6.2-2.2c-0.4,0-0.8,0-1,0s-0.4,0-0.7,0.1
			L1267.1,623.3z"/>
		<path id="XMLID_37_" d="M1296.2,659.9v-64.7h27.2v12h-14.7v13.1h13.4v11.9h-13.4v15.2h14.7V660L1296.2,659.9L1296.2,659.9z"/>
		<path id="XMLID_36_" d="M1332.1,659.9v-64.7h13.1l13.1,34.8c0.3,1.1,1,2.9,1.6,5.2c0.7,2.3,1.5,5,2.3,8.2
			c-0.7-4.6-1.2-8.8-1.5-12.6c-0.3-3.8-0.5-7.4-0.5-10.7v-24.9h12v64.7h-12l-14.2-36.2c-0.3-0.5-0.9-2.7-1.8-6.6
			c-0.4-1.7-0.9-3.1-1.1-4.2c0.3,2.5,0.5,5.4,0.7,8.5c0.2,3.1,0.3,6.9,0.3,11.3V660L1332.1,659.9L1332.1,659.9z"/>
		<path id="XMLID_34_" d="M1388.5,659.9v-52.7h-9.9v-12h32.7v12h-9.9v52.7H1388.5z"/>
	</g>
	<g>
		<path d="M1407.2,539.6H1057V190.4l0.9,0.1c8.2,0.5,16.6,1.4,24.8,2.5l0.8,0.1v323.1h321.5l0.1,0.8c0.8,6.3,1.5,12.6,1.9,18.8
			L1407.2,539.6z M1058.7,537.9h346.7l-0.1-2c-0.5-6-1.1-12-1.8-18h-321.7V194.5c-7.6-1-15.4-1.8-23-2.3V537.9z"/>
	</g>
	<g>
		<path d="M1404.7,514.4h-319.5V193.3l1,0.1c29.1,4.2,57.8,11.8,85.2,22.7l0.5,0.2V375h-49.5l85.3,110.9l85.3-110.9h-49.5V254.3
			l1.4,0.9c87.2,59.9,145.5,153.9,159.8,258.1L1404.7,514.4z M1086.9,512.6h315.8c-14.4-102.8-71.8-195.6-157.6-255v115.6h51.3
			l-88.8,115.4l-88.8-115.4h51.3V217.5c-26.8-10.6-54.8-18.1-83.3-22.2V512.6z"/>
	</g>
	<g>
		<path d="M1408.1,567.9h-378.3V189.6h2.9c7.2,0,14.5,0.2,21.7,0.6l0.8,0v351.1h352.1l0,0.8c0.5,7.6,0.7,15.2,0.7,22.8V567.9z
			 M1031.6,566.2h374.8V565c0-7.3-0.2-14.6-0.6-21.9h-352.2V191.9c-6.9-0.4-13.9-0.6-20.7-0.6h-1.2V566.2z"/>
	</g>
	<g>
		<path d="M1410,542.2L1410,542.2l-0.1-1.8c0,0,0,0,0,0l-0.1-1.6h0c-0.1-1.1-0.2-2.2-0.2-3.2c-0.5-6.1-1.1-12.3-1.9-18.5h0l-0.3-2
			l-0.2-1.5h0c-14.8-108.7-76-202.8-162.9-261.7v4.2c85,58.3,144.8,150.8,159.4,257.5H1086V194.3c29.6,4.2,58.1,11.9,85,22.6v-3.7
			c-27-10.6-55.4-18.2-85-22.4v0l-1.5-0.2l-2-0.3v0c-8.2-1.1-16.5-1.9-24.7-2.4v0l-1.6-0.1l-1.8-0.1v0c-7.2-0.4-14.5-0.6-21.6-0.6
			h-5.5v383.5h383.5V565C1410.7,557.4,1410.5,549.8,1410,542.2z M1057.8,191.3c8.2,0.5,16.5,1.4,24.7,2.5V517h321.6
			c0.8,6.3,1.5,12.6,1.9,18.8l0,0v0l0.2,3h-348.5V191.3z M1407.2,567h-376.5V190.5h2.1c7.2,0,14.4,0.2,21.6,0.6v351.1h352.2
			c0.5,7.5,0.7,15.2,0.7,22.7V567z"/>
		<path d="M1411.6,571.4h-385.2V186.2h6.4c6.8,0,13.7,0.2,20.7,0.6v0l5.2,0.3c7.6,0.5,15.3,1.3,23,2.3v0l5.2,0.7
			c28.9,4.1,57.3,11.6,84.4,22.3l0.5,0.2v5.6l-1.2-0.5c-27-10.7-55.2-18.3-83.8-22.4v317.4h315.8
			c-14.5-103.3-72.4-196.6-158.9-255.9l-0.4-0.3v-6.3l1.4,0.9c89.1,60.3,148.5,155.6,163.2,261.6h0l0.7,5.2h0
			c0.7,6,1.3,11.9,1.8,17.6c0.1,0.8,0.1,1.6,0.2,2.4h0l0.4,5.2h0c0.4,7.4,0.6,14.7,0.6,21.9V571.4z M1028.1,569.6h381.7V565
			c0-7.4-0.2-15-0.7-22.7l-0.1-0.9h0l-0.2-2.5c-0.1-1.1-0.2-2.2-0.2-3.2c-0.5-6-1.1-12.2-1.9-18.5l-0.1-1h0l-0.3-2.5
			c-14.3-105.2-73-200-161.2-260.2v2.1c87,59.9,145.1,153.8,159.4,257.9l0.1,1h-319.5V193.3l1,0.1c28.7,4.1,57,11.6,84,22.2v-1.9
			c-27.1-10.6-55.5-18.1-84.2-22.1l-3.5-0.5c-8.2-1.1-16.5-1.9-24.7-2.4l-3.5-0.2c-7.3-0.4-14.5-0.6-21.6-0.6h-4.7V569.6z
			 M1408.1,567.9h-378.3V189.6h2.9c7.2,0,14.5,0.2,21.7,0.6l0.8,0v351.1h352.1l0,0.8c0.5,7.6,0.7,15.2,0.7,22.8V567.9z
			 M1031.6,566.2h374.8V565c0-7.3-0.2-14.6-0.6-21.9h-352.2V191.9c-6.9-0.4-13.9-0.6-20.7-0.6h-1.2V566.2z M1407.2,539.6H1057V190.4
			l0.9,0.1c8.2,0.5,16.6,1.4,24.8,2.5l0.8,0.1v323.1h321.5l0.1,0.8c0.8,6.3,1.5,12.6,1.9,18.8L1407.2,539.6z M1058.7,537.9h346.7
			l-0.1-2c-0.5-6-1.1-12-1.8-18h-321.7V194.5c-7.6-1-15.4-1.8-23-2.3V537.9z"/>
	</g>
	<g>
		<path d="M1240.8,377.6h46.8l-80,104l-80-104h46.8V218.3c-1.2-0.5-2.3-0.9-3.5-1.4v157.2h-50.4l87.1,113.2l87.1-113.2h-50.4V256
			c-1.2-0.8-2.3-1.6-3.5-2.4V377.6z"/>
		<path d="M1207.7,488.7l-88.8-115.4h51.3V215.6l2.3,0.9c0.8,0.3,1.6,0.6,2.4,0.9l0.5,0.2v160.8h-45.9l78.2,101.7l78.2-101.7H1240
			V252l1.4,0.9c0.8,0.6,1.7,1.1,2.5,1.7l1.3,0.9v117.7h51.3L1207.7,488.7z M1122.4,375l85.3,110.9l85.3-110.9h-49.5V256.4l-0.6-0.4
			c-0.4-0.3-0.8-0.5-1.1-0.8v121.5h47.7L1207.7,483l-81.8-106.3h47.7V218.9c-0.6-0.2-1.2-0.5-1.7-0.7V375H1122.4z"/>
	</g>
	<g>
		<path d="M1240.8,253.6c1.2,0.8,2.3,1.6,3.5,2.4v-4.2c-1.2-0.8-2.3-1.6-3.5-2.3V253.6z"/>
		<path d="M1245.2,257.6l-2.3-1.6c-0.8-0.6-1.7-1.1-2.5-1.7l-0.4-0.3v-6.2l1.3,0.9c1.2,0.8,2.3,1.5,3.5,2.3l0.4,0.3V257.6z
			 M1241.7,253.1c0.6,0.4,1.2,0.8,1.7,1.2v-2.1c-0.6-0.4-1.2-0.8-1.7-1.2V253.1z"/>
	</g>
	<g>
		<path d="M1174.5,218.3v-3.7c-1.2-0.5-2.3-0.9-3.5-1.4v3.7C1172.2,217.3,1173.3,217.8,1174.5,218.3z"/>
		<path d="M1175.4,219.6l-1.2-0.5c-0.8-0.3-1.6-0.6-2.3-0.9l-1.7-0.7v-5.6l1.4,0.5c1.1,0.4,2.2,0.9,3.3,1.3l0.5,0.2V219.6z
			 M1171.9,216.3l0.6,0.2c0.4,0.2,0.8,0.3,1.2,0.5v-1.9c-0.6-0.2-1.2-0.5-1.7-0.7V216.3z"/>
	</g>
</g>
<g id="XMLID_53_">
	<path id="XMLID_63_" d="M415.7,657.8V593h12.8v52h14.7v12.7H415.7z"/>
	<path id="XMLID_62_" d="M448.9,657.8V593H462v64.7H448.9z"/>
	<path id="XMLID_61_" d="M472.8,657.8V593h12.6c8.4,0,14.4,1.3,18,4c3.5,2.6,5.3,7,5.3,13.3c0,3.6-0.7,6.4-2,8.7
		c-1.3,2.3-3.4,4.1-6.2,5.5c3.1,1.1,5.5,2.9,6.9,5.3c1.5,2.4,2.3,5.6,2.3,9.5c0,2.9-0.5,5.6-1.5,8c-1,2.3-2.4,4.4-4.3,6.1
		s-4.1,2.8-6.7,3.5c-2.6,0.7-6.8,1-12.3,1L472.8,657.8L472.8,657.8z M485.3,619.9h1.4c3.3,0,5.7-0.6,7.3-1.9c1.6-1.3,2.3-3.3,2.3-6
		c0-2.9-0.8-4.9-2.3-6.3c-1.6-1.4-4-2-7.4-2h-1.3V619.9z M485.3,646.3c0.2,0,0.5,0,0.9,0.1c0.4,0,0.7,0,0.9,0c3.3,0,5.7-0.7,7.2-2
		c1.5-1.3,2.3-3.5,2.3-6.3c0-3.1-0.8-5.3-2.3-6.7c-1.5-1.3-4-2-7.5-2h-1.6L485.3,646.3L485.3,646.3z"/>
	<path id="XMLID_60_" d="M523.1,657.8V605h-9.9v-12h32.7v12h-9.9v52.7H523.1z"/>
	<path id="XMLID_59_" d="M594.1,626.4c0,9.9-2.1,17.7-6.2,23.5c-4.2,5.8-9.6,8.7-16.6,8.7c-7.1,0-12.8-2.9-16.7-8.8
		c-4-5.8-6-14-6-24.4c0-10.3,2-18.5,6.1-24.4c4-5.9,9.5-8.8,16.7-8.8c7.1,0,12.7,3,16.7,9C592,607.4,594.1,615.7,594.1,626.4z
		 M571.3,646.3c3.3,0,5.8-1.7,7.5-5.2c1.6-3.5,2.4-8.7,2.4-15.6c0-7-0.8-12.2-2.4-15.7c-1.6-3.5-4.1-5.2-7.5-5.2
		c-3.3,0-5.8,1.7-7.4,5.2c-1.6,3.5-2.4,8.7-2.4,15.7c0,7,0.8,12.2,2.4,15.6C565.5,644.6,568,646.3,571.3,646.3z"/>
	<path id="XMLID_58_" d="M602.1,657.8V593h13.4c7.4,0,12.8,1.5,16,4.3c3.3,2.9,4.9,7.5,4.9,13.9c0,4.6-0.9,8.3-2.5,11.1
		c-1.7,2.8-4.3,4.8-7.7,5.9l12.4,29.5H625L614.5,631v26.7H602.1z M614.6,621.2c0.2,0,0.4,0,0.7,0c0.3,0,0.6,0,0.7,0
		c2.8,0,4.9-0.8,6.3-2.3c1.4-1.6,2.2-3.9,2.2-6.9c0-3.1-0.7-5.4-1.9-6.8c-1.3-1.4-3.4-2.2-6.2-2.2c-0.4,0-0.8,0-1,0s-0.4,0-0.7,0.1
		L614.6,621.2z"/>
	<path id="XMLID_57_" d="M643.7,657.8V593h13.4c7.4,0,12.8,1.5,16,4.3s4.9,7.5,4.9,13.9c0,4.6-0.9,8.3-2.5,11.1
		c-1.7,2.8-4.3,4.8-7.7,5.9l12.4,29.5h-13.6L656.1,631v26.7H643.7z M656.2,621.2c0.2,0,0.4,0,0.7,0c0.3,0,0.6,0,0.7,0
		c2.8,0,4.9-0.8,6.3-2.3c1.4-1.6,2.2-3.9,2.2-6.9c0-3.1-0.7-5.4-1.9-6.8c-1.3-1.4-3.4-2.2-6.2-2.2c-0.4,0-0.8,0-1,0
		c-0.3,0-0.4,0-0.7,0.1L656.2,621.2z"/>
	<path id="XMLID_56_" d="M685.3,657.8V593h27.2v12h-14.7v13.1h13.4V630h-13.4v15.2h14.7v12.7L685.3,657.8L685.3,657.8z"/>
	<path id="XMLID_55_" d="M721.2,657.8V593h13.1l13.1,34.8c0.3,1.1,1,2.9,1.6,5.2c0.7,2.3,1.5,5,2.3,8.2c-0.7-4.6-1.2-8.8-1.5-12.6
		c-0.3-3.8-0.5-7.4-0.5-10.7V593h12v64.7h-12l-14.2-36.2c-0.3-0.5-0.9-2.7-1.8-6.6c-0.4-1.7-0.9-3.1-1.1-4.2
		c0.3,2.5,0.5,5.4,0.7,8.5c0.2,3.1,0.3,6.9,0.3,11.3v27.2L721.2,657.8L721.2,657.8z"/>
	<path id="XMLID_54_" d="M777.6,657.8V605h-9.9v-12h32.7v12h-9.9v52.7H777.6z"/>
</g>
<path fill="none" d="M795.2,533.6C795.2,533.6,795.2,533.6,795.2,533.6L795.2,533.6c-0.5-6.2-1.1-12.5-1.9-18.8H471.7V191.6
	c-8.2-1.1-16.5-1.9-24.7-2.5v347.4h348.5L795.2,533.6z"/>
<path fill="none" d="M443.5,540.1V188.9c-7.2-0.4-14.5-0.6-21.6-0.6h-2.1v376.5h376.5v-2.1c0-7.6-0.2-15.2-0.7-22.7H443.5z"/>
<path stroke="#000000" stroke-width="2" stroke-miterlimit="10" d="M799.1,540.1L799.1,540.1l-0.1-1.8c0,0,0,0,0,0l-0.1-1.6h0
	c-0.1-1.1-0.2-2.2-0.2-3.2c-0.5-6.1-1.1-12.3-1.9-18.5h0l-0.3-2l-0.2-1.5h0c-14.8-108.7-76-202.8-162.9-261.7
	c-1.2-0.8-2.3-1.6-3.5-2.3v4.1v124h46.8l-80,104l-80-104h46.8V216.1v-3.7c-1.2-0.5-2.3-0.9-3.5-1.4c-27-10.6-55.4-18.2-85-22.4v0
	l-1.5-0.2l-2-0.3v0c-8.2-1.1-16.5-1.9-24.7-2.4v0l-1.6-0.1l-1.8-0.1v0c-7.2-0.4-14.5-0.6-21.6-0.6h-5.5v383.5h383.5v-5.5
	C799.8,555.2,799.6,547.6,799.1,540.1z M447,189.2c8.2,0.5,16.5,1.4,24.7,2.5v323.2h321.6c0.8,6.3,1.5,12.6,1.9,18.8l0,0
	c0,0,0,0,0,0l0.2,3H447V189.2z M796.4,564.9H419.8V188.3h2.1c7.2,0,14.4,0.2,21.6,0.6v351.1h352.2c0.5,7.5,0.7,15.2,0.7,22.7V564.9z
	"/>
<polygon points="447,564.9 416.4,564.9 416.4,188.3 445.3,185.6 "/>
<polygon points="798.1,568.3 446.9,568.3 446.9,538.4 797.2,538.4 "/>
</svg>
